<svg width="24" height="19" viewBox="0 0 24 19" fill="none" xmlns="http://www.w3.org/2000/svg">
<path d="M21.75 0.781738H2.25C1.00734 0.781738 0 1.78908 0 3.03174V16.5317C0 17.7744 1.00734 18.7817 2.25 18.7817H21.75C22.9927 18.7817 24 17.7744 24 16.5317V3.03174C24 1.78908 22.9927 0.781738 21.75 0.781738ZM21.75 3.03174V4.94447C20.699 5.80036 19.0234 7.13124 15.4412 9.93619C14.6518 10.5571 13.0881 12.0489 12 12.0316C10.9121 12.0491 9.34786 10.5569 8.55877 9.93619C4.97719 7.13166 3.30117 5.8005 2.25 4.94447V3.03174H21.75ZM2.25 16.5317V7.83164C3.32409 8.68716 4.8473 9.88768 7.16897 11.7057C8.19352 12.5122 9.98775 14.2925 12 14.2817C14.0024 14.2925 15.7739 12.538 16.8306 11.7061C19.1522 9.8881 20.6759 8.68725 21.75 7.83169V16.5317H2.25Z" fill="#F38C21"/>
</svg>
