<svg width="24" height="25" viewBox="0 0 24 25" fill="none" xmlns="http://www.w3.org/2000/svg">
<path d="M8.02742 20.1065C8.02742 20.2058 7.91613 20.2852 7.77581 20.2852C7.61613 20.3 7.50484 20.2206 7.50484 20.1065C7.50484 20.0072 7.61613 19.9278 7.75645 19.9278C7.90161 19.913 8.02742 19.9924 8.02742 20.1065ZM6.52258 19.8832C6.48871 19.9824 6.58548 20.0966 6.73065 20.1264C6.85645 20.176 7.00161 20.1264 7.03064 20.0271C7.05968 19.9278 6.96774 19.8137 6.82258 19.769C6.69677 19.7343 6.55645 19.7839 6.52258 19.8832ZM8.66129 19.7988C8.52097 19.8336 8.42419 19.9278 8.43871 20.042C8.45323 20.1412 8.57903 20.2058 8.72419 20.171C8.86452 20.1363 8.96129 20.042 8.94677 19.9427C8.93226 19.8484 8.80161 19.7839 8.66129 19.7988ZM11.8452 0.781738C5.13387 0.781738 0 6.00746 0 12.8907C0 18.3944 3.37742 23.104 8.20161 24.7615C8.82097 24.8757 9.03871 24.4836 9.03871 24.161C9.03871 23.8533 9.02419 22.1561 9.02419 21.1139C9.02419 21.1139 5.6371 21.8583 4.92581 19.635C4.92581 19.635 4.37419 18.1909 3.58065 17.8187C3.58065 17.8187 2.47258 17.0396 3.65806 17.0544C3.65806 17.0544 4.8629 17.1537 5.52581 18.3348C6.58548 20.2504 8.36129 19.6996 9.05323 19.372C9.16452 18.578 9.47903 18.0271 9.82742 17.6996C7.12258 17.3919 4.39355 16.9899 4.39355 12.2158C4.39355 10.8511 4.76129 10.1662 5.53548 9.29277C5.40968 8.9702 4.99839 7.64019 5.66129 5.9231C6.67258 5.60052 9 7.26303 9 7.26303C9.96774 6.98512 11.0081 6.8412 12.0387 6.8412C13.0694 6.8412 14.1097 6.98512 15.0774 7.26303C15.0774 7.26303 17.4048 5.59556 18.4161 5.9231C19.079 7.64516 18.6677 8.9702 18.5419 9.29277C19.3161 10.1712 19.7903 10.856 19.7903 12.2158C19.7903 17.0048 16.9403 17.3869 14.2355 17.6996C14.6806 18.0916 15.0581 18.8361 15.0581 20.0023C15.0581 21.6747 15.0435 23.7442 15.0435 24.1511C15.0435 24.4737 15.2661 24.8657 15.8806 24.7516C20.7194 23.104 24 18.3944 24 12.8907C24 6.00746 18.5565 0.781738 11.8452 0.781738ZM4.70323 17.8981C4.64032 17.9477 4.65484 18.0619 4.7371 18.1562C4.81452 18.2356 4.92581 18.2703 4.98871 18.2058C5.05161 18.1562 5.0371 18.042 4.95484 17.9477C4.87742 17.8683 4.76613 17.8336 4.70323 17.8981ZM4.18064 17.4961C4.14677 17.5606 4.19516 17.64 4.29194 17.6897C4.36935 17.7393 4.46613 17.7244 4.5 17.6549C4.53387 17.5904 4.48548 17.511 4.38871 17.4614C4.29194 17.4316 4.21452 17.4465 4.18064 17.4961ZM5.74839 19.2628C5.67097 19.3274 5.7 19.4762 5.81129 19.5705C5.92258 19.6847 6.0629 19.6996 6.12581 19.6202C6.18871 19.5556 6.15968 19.4068 6.0629 19.3125C5.95645 19.1983 5.81129 19.1834 5.74839 19.2628ZM5.19677 18.5333C5.11935 18.583 5.11935 18.712 5.19677 18.8261C5.27419 18.9403 5.40484 18.9899 5.46774 18.9403C5.54516 18.8758 5.54516 18.7467 5.46774 18.6326C5.4 18.5184 5.27419 18.4688 5.19677 18.5333Z" fill="#F38C21"/>
</svg>
