<svg width="25" height="26" viewBox="0 0 25 26" fill="none" xmlns="http://www.w3.org/2000/svg">
<path d="M12.5028 6.8707C8.95566 6.8707 6.09453 9.73182 6.09453 13.279C6.09453 16.8261 8.95566 19.6872 12.5028 19.6872C16.0499 19.6872 18.911 16.8261 18.911 13.279C18.911 9.73182 16.0499 6.8707 12.5028 6.8707ZM12.5028 17.4452C10.2105 17.4452 8.33659 15.5768 8.33659 13.279C8.33659 10.9811 10.205 9.11275 12.5028 9.11275C14.8006 9.11275 16.669 10.9811 16.669 13.279C16.669 15.5768 14.795 17.4452 12.5028 17.4452ZM20.6679 6.60857C20.6679 7.43957 19.9986 8.10327 19.1732 8.10327C18.3422 8.10327 17.6785 7.434 17.6785 6.60857C17.6785 5.78313 18.3477 5.11386 19.1732 5.11386C19.9986 5.11386 20.6679 5.78313 20.6679 6.60857ZM24.9122 8.12558C24.8173 6.12334 24.36 4.34978 22.8932 2.88854C21.432 1.4273 19.6584 0.96997 17.6562 0.86958C15.5926 0.752458 9.40742 0.752458 7.34384 0.86958C5.34718 0.964393 3.57362 1.42173 2.1068 2.88297C0.639989 4.3442 0.188232 6.11777 0.0878416 8.12C-0.0292805 10.1836 -0.0292805 16.3687 0.0878416 18.4323C0.182655 20.4346 0.639989 22.2081 2.1068 23.6694C3.57362 25.1306 5.34161 25.5879 7.34384 25.6883C9.40742 25.8054 15.5926 25.8054 17.6562 25.6883C19.6584 25.5935 21.432 25.1362 22.8932 23.6694C24.3544 22.2081 24.8118 20.4346 24.9122 18.4323C25.0293 16.3687 25.0293 10.1892 24.9122 8.12558ZM22.2462 20.6465C21.8112 21.7396 20.969 22.5818 19.8703 23.0224C18.225 23.6749 14.321 23.5244 12.5028 23.5244C10.6846 23.5244 6.77496 23.6694 5.13525 23.0224C4.04211 22.5874 3.19994 21.7452 2.75934 20.6465C2.1068 19.0012 2.25739 15.0971 2.25739 13.279C2.25739 11.4608 2.11238 7.55112 2.75934 5.91141C3.19437 4.81827 4.03653 3.97611 5.13525 3.5355C6.78054 2.88297 10.6846 3.03355 12.5028 3.03355C14.321 3.03355 18.2306 2.88854 19.8703 3.5355C20.9635 3.97053 21.8056 4.81269 22.2462 5.91141C22.8988 7.5567 22.7482 11.4608 22.7482 13.279C22.7482 15.0971 22.8988 19.0068 22.2462 20.6465Z" fill="#F38C21"/>
</svg>
