<svg width="25" height="26" viewBox="0 0 25 26" fill="none" xmlns="http://www.w3.org/2000/svg">
<path d="M5.59598 25.7812H0.412946V9.09033H5.59598V25.7812ZM3.00167 6.81355C1.34431 6.81355 0 5.44078 0 3.78341C1.18627e-08 2.98732 0.316247 2.22383 0.87917 1.66091C1.44209 1.09799 2.20558 0.781738 3.00167 0.781738C3.79777 0.781738 4.56125 1.09799 5.12418 1.66091C5.6871 2.22383 6.00335 2.98732 6.00335 3.78341C6.00335 5.44078 4.65848 6.81355 3.00167 6.81355ZM24.9944 25.7812H19.8225V17.6562C19.8225 15.7198 19.7835 13.2365 17.1278 13.2365C14.433 13.2365 14.0201 15.3403 14.0201 17.5167V25.7812H8.84263V9.09033H13.8136V11.3671H13.8862C14.5781 10.0557 16.2684 8.6718 18.7902 8.6718C24.0357 8.6718 25 12.126 25 16.6127V25.7812H24.9944Z" fill="#F38C21"/>
</svg>
